<mxfile host="app.diagrams.net" agent="Mozilla/5.0 (Windows NT 10.0; Win64; x64) AppleWebKit/537.36 (KHTML, like Gecko) Chrome/133.0.0.0 Safari/537.36" version="26.0.16">
  <diagram name="Página-1" id="G6XT5jI0pQlwZ8WYFb1J">
    <mxGraphModel dx="1050" dy="1772" grid="1" gridSize="10" guides="1" tooltips="1" connect="1" arrows="1" fold="1" page="1" pageScale="1" pageWidth="827" pageHeight="1169" math="0" shadow="0">
      <root>
        <mxCell id="0" />
        <mxCell id="1" parent="0" />
        <mxCell id="KL3MQ-RZ--edH_SUAPt6-1" value="Cliente entra no bar" style="ellipse;whiteSpace=wrap;html=1;" vertex="1" parent="1">
          <mxGeometry x="190" y="-10" width="120" height="70" as="geometry" />
        </mxCell>
        <mxCell id="KL3MQ-RZ--edH_SUAPt6-2" value="Cliente sai do bar" style="ellipse;whiteSpace=wrap;html=1;" vertex="1" parent="1">
          <mxGeometry x="630" y="350" width="120" height="70" as="geometry" />
        </mxCell>
        <mxCell id="KL3MQ-RZ--edH_SUAPt6-4" value="" style="endArrow=classic;html=1;rounded=0;exitX=0.5;exitY=1;exitDx=0;exitDy=0;" edge="1" parent="1" source="KL3MQ-RZ--edH_SUAPt6-1" target="KL3MQ-RZ--edH_SUAPt6-5">
          <mxGeometry width="50" height="50" relative="1" as="geometry">
            <mxPoint x="80" y="120" as="sourcePoint" />
            <mxPoint x="88" y="140" as="targetPoint" />
          </mxGeometry>
        </mxCell>
        <mxCell id="KL3MQ-RZ--edH_SUAPt6-5" value="Cliente senta e pega cardápio" style="rounded=0;whiteSpace=wrap;html=1;" vertex="1" parent="1">
          <mxGeometry x="190" y="100" width="120" height="60" as="geometry" />
        </mxCell>
        <mxCell id="KL3MQ-RZ--edH_SUAPt6-6" value="" style="endArrow=classic;html=1;rounded=0;exitX=0.5;exitY=1;exitDx=0;exitDy=0;" edge="1" parent="1" source="KL3MQ-RZ--edH_SUAPt6-5" target="KL3MQ-RZ--edH_SUAPt6-7">
          <mxGeometry width="50" height="50" relative="1" as="geometry">
            <mxPoint x="390" y="240" as="sourcePoint" />
            <mxPoint x="88" y="220" as="targetPoint" />
          </mxGeometry>
        </mxCell>
        <mxCell id="KL3MQ-RZ--edH_SUAPt6-7" value="Deseja pedir uma cervejinha?" style="rhombus;whiteSpace=wrap;html=1;" vertex="1" parent="1">
          <mxGeometry x="190" y="208" width="120" height="116" as="geometry" />
        </mxCell>
        <mxCell id="KL3MQ-RZ--edH_SUAPt6-8" value="" style="endArrow=classic;html=1;rounded=0;exitX=1;exitY=0.5;exitDx=0;exitDy=0;" edge="1" parent="1" source="KL3MQ-RZ--edH_SUAPt6-7">
          <mxGeometry width="50" height="50" relative="1" as="geometry">
            <mxPoint x="390" y="240" as="sourcePoint" />
            <mxPoint x="410" y="266" as="targetPoint" />
          </mxGeometry>
        </mxCell>
        <mxCell id="KL3MQ-RZ--edH_SUAPt6-9" value="Sim" style="text;html=1;align=center;verticalAlign=middle;resizable=0;points=[];autosize=1;strokeColor=none;fillColor=none;" vertex="1" parent="1">
          <mxGeometry x="320" y="230" width="40" height="30" as="geometry" />
        </mxCell>
        <mxCell id="KL3MQ-RZ--edH_SUAPt6-10" value="Não" style="text;html=1;align=center;verticalAlign=middle;resizable=0;points=[];autosize=1;strokeColor=none;fillColor=none;" vertex="1" parent="1">
          <mxGeometry x="140" y="230" width="50" height="30" as="geometry" />
        </mxCell>
        <mxCell id="KL3MQ-RZ--edH_SUAPt6-13" value="" style="endArrow=classic;html=1;rounded=0;exitX=0;exitY=0.5;exitDx=0;exitDy=0;" edge="1" parent="1" source="KL3MQ-RZ--edH_SUAPt6-7">
          <mxGeometry width="50" height="50" relative="1" as="geometry">
            <mxPoint x="390" y="240" as="sourcePoint" />
            <mxPoint x="130" y="266" as="targetPoint" />
          </mxGeometry>
        </mxCell>
        <mxCell id="KL3MQ-RZ--edH_SUAPt6-14" value="Garçom traz uma cerveja" style="rounded=0;whiteSpace=wrap;html=1;" vertex="1" parent="1">
          <mxGeometry x="414" y="236" width="120" height="60" as="geometry" />
        </mxCell>
        <mxCell id="KL3MQ-RZ--edH_SUAPt6-15" value="" style="rounded=0;whiteSpace=wrap;html=1;" vertex="1" parent="1">
          <mxGeometry x="40" y="320" width="120" height="60" as="geometry" />
        </mxCell>
      </root>
    </mxGraphModel>
  </diagram>
</mxfile>
